<?xml version="1.0" encoding="utf-8"?>
<!-- Generator: Adobe Illustrator 25.2.1, SVG Export Plug-In . SVG Version: 6.00 Build 0)  -->
<svg version="1.1" id="Layer_1" xmlns="http://www.w3.org/2000/svg" xmlns:xlink="http://www.w3.org/1999/xlink" x="0px" y="0px"
	 viewBox="0 0 200 200" style="enable-background:new 0 0 200 200;" xml:space="preserve">
<style type="text/css">
	.st0{clip-path:url(#SVGID_2_);fill:#C22736;}
</style>
<g>
	<defs>
		<rect id="SVGID_1_" x="3.2" y="0.6" width="193.7" height="198.8"/>
	</defs>
	<clipPath id="SVGID_2_">
		<use xlink:href="#SVGID_1_"  style="overflow:visible;"/>
	</clipPath>
	<path class="st0" d="M171.6,93.2c2.6-6.7,3.9-15.2,3.9-25.3c0-9.9-1.8-19.1-5.3-27.4c-3.5-8.2-9-15.3-16.3-21.1
		c-7.4-5.8-16.9-10.5-28.2-13.8c-11.4-3.3-25.1-5-40.7-5H3.2v82l45.9-11l-25-13.7L46.2,51l23.5,5.5L97.1,48l27.9,8l-18.8,21.6
		l-27.5,8.5l-16.2,17.8h0l-22.2,6.9l13.1-26.5l-50.3,12v103.2H74v-66.8h6.5l34.8,66.8h81.5l-48.3-76.9l1.9-1.2
		c4.6-2.9,8.8-6.8,12.4-11.7C166,105.5,168.9,100,171.6,93.2"/>
</g>
</svg>
