<svg width="106" height="106" viewBox="0 0 106 106" fill="none" xmlns="http://www.w3.org/2000/svg">
<path d="M33.5437 71.063C33.7144 66.8921 35.1496 62.2643 37.8194 57.293C41.3602 50.7004 42.5682 45.283 41.4228 41.155C44.4804 43.7855 47.9027 48.5941 50.2543 57.3852C50.4559 58.1391 51.1389 58.6634 51.9195 58.6634C52.7001 58.6634 53.3828 58.1395 53.5844 57.3855C55.9363 48.5933 59.3597 43.7837 62.4155 41.1535C61.2698 45.2815 62.4771 50.6997 66.0175 57.293C68.7212 62.328 70.1585 67.0062 70.2986 71.2135C65.5318 75.7552 59.0886 78.5528 52.0002 78.5528C44.8336 78.5528 38.3256 75.694 33.5437 71.063ZM78.5528 52.0002C78.5528 52.42 78.5402 52.8366 78.5211 53.2514C78.5157 53.3641 78.5075 53.4764 78.501 53.5891C78.4819 53.9088 78.4585 54.2271 78.4282 54.5436C78.4189 54.6441 78.4088 54.7445 78.3984 54.845C78.3559 55.2407 78.3073 55.6349 78.2479 56.0252C78.2471 56.0306 78.2464 56.0364 78.2457 56.0422C77.5843 60.3538 75.8783 64.3245 73.4008 67.6943C72.7721 63.9079 71.3186 59.8778 69.0549 55.6619C65.6668 49.3527 64.6385 44.3249 66.0805 41.1215C67.2356 38.5557 69.6433 37.9609 69.7297 37.9404C70.5852 37.7557 71.1663 36.9589 71.0813 36.0879C70.996 35.2166 70.2716 34.5476 69.3966 34.5321C69.3858 34.5317 69.3711 34.5317 69.3516 34.5317C68.454 34.5317 58.102 34.899 51.9195 51.2775C45.6027 34.5443 34.9325 34.5234 34.4406 34.5321C33.5718 34.5476 32.8589 35.2094 32.766 36.0735C32.6731 36.9373 33.2463 37.7373 34.0917 37.9368C34.194 37.9609 36.602 38.5561 37.7571 41.1218C39.1995 44.3252 38.1708 49.3531 34.7823 55.6619C32.5561 59.8073 31.113 63.7751 30.4681 67.5096C27.8372 63.8676 26.1036 59.5379 25.6016 54.8428C25.5905 54.7384 25.5808 54.634 25.5707 54.5296C25.5415 54.2178 25.5181 53.9042 25.4994 53.5895C25.4925 53.4742 25.4843 53.3594 25.4792 53.2438C25.4598 52.8315 25.4472 52.4171 25.4472 52.0002C25.4472 51.4378 25.4709 50.8811 25.5055 50.3274C25.5447 49.7016 25.6074 49.0827 25.6891 48.4691C26.4103 43.0683 28.7564 38.1762 32.2249 34.3045C32.5521 33.9391 32.8866 33.5801 33.2334 33.2334C33.2481 33.2186 33.2636 33.2049 33.2784 33.1905C34.3463 32.1273 35.5078 31.1591 36.7425 30.2888C36.9599 30.1355 37.1778 29.9839 37.3999 29.8377C38.3894 29.1831 39.4224 28.589 40.4986 28.0698C40.5353 28.0522 40.5731 28.0367 40.6098 28.0194C44.0635 26.3722 47.9254 25.4475 52.0002 25.4475C66.6415 25.4475 78.5528 37.3589 78.5528 52.0002ZM81.9431 53.7756C81.9482 53.6921 81.9572 53.6096 81.9615 53.5261C81.9863 53.0199 82 52.5122 82 52.002C82 52.0013 82 52.0002 82 52.0002C82.0004 35.4582 68.5422 22 52.0002 22C47.3965 22 43.033 23.0449 39.1307 24.906C39.0893 24.9258 39.0468 24.9431 39.0054 24.9629C36.9135 25.9725 34.9595 27.2222 33.1707 28.6686C32.3433 29.3376 31.5487 30.0451 30.7969 30.7965C30.781 30.8124 30.7666 30.8293 30.7504 30.8451C29.8226 31.7777 28.9584 32.7729 28.1584 33.8195C28.0118 34.0114 27.8685 34.2059 27.7263 34.401C26.5479 36.022 25.53 37.7647 24.6907 39.6067C24.4927 40.0406 24.3054 40.4798 24.1283 40.9245C22.7604 44.3537 22 48.0885 22 51.9998C22 51.9998 22 52.0009 22 52.0016C22 52.5082 22.0133 53.013 22.0382 53.5157C22.0439 53.632 22.0562 53.7468 22.0634 53.8635C22.0875 54.2527 22.1138 54.6419 22.1523 55.0286C22.162 55.1244 22.1764 55.2187 22.1872 55.3141C22.2319 55.7239 22.2816 56.1322 22.3431 56.538C22.3507 56.5898 22.3611 56.6406 22.3694 56.6924C23.3282 62.8177 26.1532 68.4868 30.57 72.9954C30.6248 73.0515 30.6838 73.1016 30.7447 73.1491C36.1808 78.6126 43.702 82 51.9998 82C60.2282 82 67.6921 78.668 73.1174 73.2849C73.1639 73.2471 73.2136 73.2139 73.2564 73.1707C78.1452 68.261 81.1258 61.955 81.8326 55.1571C81.8365 55.1222 81.8419 55.0877 81.8455 55.0527C81.8877 54.6289 81.9179 54.2026 81.9427 53.7756" fill="#245C4D"/>
</svg>
